<?xml version="1.0" encoding="UTF-8" standalone="no"?>
<!-- Created with Inkscape (http://www.inkscape.org/) -->

<svg
   width="19.24217mm"
   height="130.86954mm"
   viewBox="0 0 19.24217 130.86954"
   version="1.1"
   id="svg1"
   xmlns="http://www.w3.org/2000/svg"
   xmlns:svg="http://www.w3.org/2000/svg">
  <defs
     id="defs1" />
  <g
     id="layer1"
     transform="translate(-84.019317,-78.981941)">
    <path
       style="font-weight:bold;font-size:96px;line-height:1.7;font-family:Sans;-inkscape-font-specification:'Sans Bold';text-align:center;letter-spacing:0px;text-anchor:middle;white-space:pre;shape-padding:11.1278;fill:#24221c;stroke:none;stroke-width:0.264583"
       d="m 103.23362,85.517966 q 0,2.058789 -0.60771,3.807521 -0.60772,1.736328 -1.81074,2.988964 -1.203033,1.252638 -3.001371,1.947169 -1.798341,0.682127 -4.154786,0.682127 -2.195214,0 -3.981151,-0.657322 -1.785938,-0.657326 -3.063381,-1.909961 -1.22783,-1.203029 -1.897557,-2.976563 -0.669726,-1.785937 -0.669726,-3.894336 0,-1.16582 0.136424,-2.095997 0.124023,-0.942578 0.334865,-1.736328 0.235643,-0.830956 0.533299,-1.500682 0.285255,-0.682131 0.533302,-1.190625 h 4.477245 v 0.545703 q -0.297656,0.347265 -0.706932,0.880565 -0.409279,0.520898 -0.806154,1.190625 -0.396875,0.68213 -0.669727,1.47588 -0.272851,0.79375 -0.272851,1.69912 0,1.004591 0.322461,1.909961 0.31006,0.905372 1.041797,1.674317 0.706935,0.731737 1.872755,1.190625 1.16582,0.446485 2.827734,0.446485 1.736328,0 2.902149,-0.483693 1.16582,-0.496094 1.835546,-1.240234 0.682128,-0.756542 0.979784,-1.686719 0.285255,-0.930175 0.285255,-1.835547 0,-0.868164 -0.26045,-1.711523 -0.260448,-0.855761 -0.706932,-1.575097 -0.35967,-0.607716 -0.768946,-1.128614 -0.409278,-0.520899 -0.706935,-0.855761 v -0.496093 h 4.415233 q 0.31006,0.694531 0.58291,1.327049 0.27285,0.632521 0.47129,1.327052 0.26045,0.90537 0.39688,1.69912 0.13642,0.79375 0.13642,2.182812 z"
       id="path15" />
    <path
       style="font-weight:bold;font-size:96px;line-height:1.7;font-family:Sans;-inkscape-font-specification:'Sans Bold';text-align:center;letter-spacing:0px;text-anchor:middle;white-space:pre;shape-padding:11.1278;fill:#24221c;stroke:none;stroke-width:0.264583"
       d="m 102.87395,97.8583 v 13.35732 H 84.406865 V 97.8583 h 3.571875 v 8.61963 h 3.187403 v -7.999513 h 3.571875 v 7.999513 h 4.564063 V 97.8583 Z"
       id="path14" />
    <path
       style="font-weight:bold;font-size:96px;line-height:1.7;font-family:Sans;-inkscape-font-specification:'Sans Bold';text-align:center;letter-spacing:0px;text-anchor:middle;white-space:pre;shape-padding:11.1278;fill:#24221c;stroke:none;stroke-width:0.264583"
       d="m 97.069657,114.47744 q 2.728516,0 4.440033,2.31924 1.69912,2.30683 1.69912,6.27558 0,2.29444 -0.39687,4.00596 -0.40928,1.69912 -1.0294,3.1874 h -4.42763 v -0.5209 q 1.178224,-1.47587 1.810742,-3.29902 0.632521,-1.83555 0.632521,-3.52227 0,-0.43408 -0.07441,-1.14101 -0.07442,-0.70693 -0.248047,-1.15342 -0.223243,-0.5457 -0.558108,-0.89297 -0.334862,-0.35967 -0.992187,-0.35967 -0.607714,0 -1.041797,0.5209 -0.446485,0.5085 -0.682128,1.50069 -0.248047,1.04179 -0.458888,2.20761 -0.223242,1.15342 -0.558104,2.17041 -0.756545,2.33164 -2.046388,3.36104 -1.302245,1.01699 -3.22461,1.01699 -2.579687,0 -4.204393,-2.30683 -1.637108,-2.31924 -1.637108,-5.95313 0,-1.82314 0.359667,-3.59668 0.347264,-1.78594 0.880567,-3.08818 h 4.254003 v 0.50849 q -0.892969,1.11622 -1.488281,2.74092 -0.607714,1.61231 -0.607714,3.29902 0,0.59532 0.08682,1.19063 0.07441,0.58291 0.297656,1.12861 0.186037,0.48369 0.570508,0.83096 0.372071,0.34727 0.855763,0.34727 0.731737,0 1.128612,-0.55811 0.384474,-0.55811 0.706935,-2.1084 0.210839,-1.01699 0.409276,-1.94717 0.198438,-0.94257 0.545703,-2.02158 0.694531,-2.1208 1.89756,-3.12539 1.190625,-1.01699 3.100586,-1.01699 z"
       id="path13" />
    <path
       style="font-weight:bold;font-size:96px;line-height:1.7;font-family:Sans;-inkscape-font-specification:'Sans Bold';text-align:center;letter-spacing:0px;text-anchor:middle;white-space:pre;shape-padding:11.1278;fill:#24221c;stroke:none;stroke-width:0.264583"
       d="m 90.062334,160.36611 q -0.694532,0 -1.190625,0.28525 -0.496094,0.28526 -0.781347,0.97979 -0.198437,0.48369 -0.235646,1.12861 -0.04961,0.64492 -0.04961,1.50069 v 1.72392 h 4.973341 v -1.46347 q 0,-1.14102 -0.111622,-1.90997 -0.11162,-0.76894 -0.508495,-1.28984 -0.384474,-0.49609 -0.843359,-0.71934 -0.47129,-0.23564 -1.252637,-0.23564 z m 12.811616,-7.429 v 5.8167 l -6.771674,5.03535 v 2.19521 h 6.771674 v 4.7377 H 84.406865 v -7.98711 q 0,-1.63711 0.186036,-2.81533 0.186034,-1.17823 0.806151,-2.20762 0.620117,-1.0418 1.612305,-1.64951 0.979786,-0.62012 2.468068,-0.62012 2.046385,0 3.336229,0.95498 1.289844,0.94258 2.145607,2.70371 z"
       id="path11" />
    <path
       style="font-weight:bold;font-size:96px;line-height:1.7;font-family:Sans;-inkscape-font-specification:'Sans Bold';text-align:center;letter-spacing:0px;text-anchor:middle;white-space:pre;shape-padding:11.1278;fill:#24221c;stroke:none;stroke-width:0.264583"
       d="m 102.87395,174.71562 v 13.35733 H 84.406865 v -13.35733 h 3.571875 v 8.61963 h 3.187403 v -7.99951 h 3.571875 v 7.99951 h 4.564063 v -8.61963 z"
       id="path10" />
    <path
       style="font-weight:bold;font-size:96px;line-height:1.7;font-family:Sans;-inkscape-font-specification:'Sans Bold';text-align:center;letter-spacing:0px;text-anchor:middle;white-space:pre;shape-padding:11.1278;fill:#24221c;stroke:none;stroke-width:0.264583"
       d="m 102.87395,190.72705 v 4.92373 l -3.733101,1.27744 v 6.84609 l 3.733101,1.27744 v 4.79971 l -18.467085,-6.82129 v -5.48183 z m -7.118939,7.35459 -6.622852,2.26963 6.622852,2.26962 z"
       id="text1" />
    <path
       id="path6"
       style="fill:#24221c;fill-opacity:1;stroke:none;stroke-width:0.215669;stroke-opacity:1"
       d="m 99.981624,151.97177 c 0.853816,0.001 1.056666,-0.20668 1.493466,-0.91525 0.68931,-1.11822 1.47519,-2.81188 1.61752,-4.50711 0.1396,-1.66296 0.14716,-1.22478 0.16282,-4.09133 0.017,-3.09084 0.007,-2.57149 -0.14662,-4.19246 -0.178,-1.87221 -1.20783,-4.10391 -1.8749,-4.91425 l -0.33903,-0.41191 -1.256558,0.0439 c -2.920098,0.102 -5.770636,0.62305 -7.828699,1.43153 -1.095571,0.43038 -2.658366,1.3129 -3.513954,1.98382 -1.702927,1.33534 -3.327274,3.49096 -4.086667,5.42406 -0.102163,0.25999 -0.188274,0.52134 -0.189645,0.58124 -0.0059,0.16641 0.836657,1.98325 1.204018,2.59598 1.102329,1.83851 2.796015,3.47006 4.732789,4.55988 2.393964,1.34708 5.05249,2.0478 8.922008,2.35132 0.46197,0.0362 0.818849,0.0601 1.103452,0.0606 z m -2.014216,-1.94522 -2.334181,-0.0143 -2.298019,-5.85018 c 0,0 -1.971151,-0.0766 -2.916329,-0.30591 -2.113477,-0.51276 -5.242714,-1.49495 -5.242714,-1.49495 0,0 3.141168,-0.94334 5.260837,-1.42987 0.947948,-0.21759 2.919899,-0.27028 2.919899,-0.27028 l 2.370339,-5.82124 2.334181,0.0143 0.550871,5.25591 1.765228,-2.32333 1.16683,0.008 0.56534,2.92121 -2.337798,0.56895 1.163728,0.59116 -0.004,0.58342 -0.004,0.58342 -1.170962,0.57618 2.330572,0.59788 -0.60151,2.9145 -1.16682,-0.008 -1.736305,-2.34503 z" />
  </g>
</svg>
